<svg width="18" height="18" viewBox="0 0 18 18" fill="none" xmlns="http://www.w3.org/2000/svg">
<path d="M4.5 8.705V13.5H9.295L8.295 12.5H5.5V9.705L4.5 8.705Z" fill="#55D6C2"/>
<path d="M17.435 16.145L16 14.69V16H2V13.925H3V13.125H2V9.8H3V9H2V5.8H3V5H2V2.205L9.97 10.13V8.72L1.855 0.645001C1.78507 0.574486 1.69572 0.526396 1.59834 0.506861C1.50097 0.487327 1.39998 0.497232 1.30826 0.535316C1.21654 0.573399 1.13824 0.637935 1.08333 0.720694C1.02843 0.803454 0.999423 0.900689 1 1V16.5C1 16.6326 1.05268 16.7598 1.14645 16.8536C1.24022 16.9473 1.36739 17 1.5 17H17.08C17.1793 17.0006 17.2765 16.9716 17.3593 16.9167C17.4421 16.8618 17.5066 16.7835 17.5447 16.6917C17.5828 16.6 17.5927 16.499 17.5731 16.4017C17.5536 16.3043 17.5055 16.2149 17.435 16.145V16.145Z" fill="#55D6C2"/>
<path d="M12 15H14C14.2652 15 14.5196 14.8946 14.7071 14.7071C14.8946 14.5196 15 14.2652 15 14V4.35L13.85 2.235C13.7611 2.08091 13.6326 1.95334 13.4779 1.86544C13.3232 1.77755 13.1479 1.73252 12.97 1.735C12.7881 1.73644 12.61 1.78749 12.4549 1.88264C12.2999 1.9778 12.1737 2.11345 12.09 2.275L11 4.36V14C11 14.2652 11.1054 14.5196 11.2929 14.7071C11.4804 14.8946 11.7348 15 12 15ZM12 4.6L12.97 2.715L14 4.605V12H12V4.6ZM12 12.815H14V14.035H12V12.815Z" fill="#55D6C2"/>
</svg>
